<?xml version="1.0" standalone="no"?>
<!DOCTYPE svg PUBLIC "-//W3C//DTD SVG 20010904//EN"
 "http://www.w3.org/TR/2001/REC-SVG-20010904/DTD/svg10.dtd">
<svg version="1.0" xmlns="http://www.w3.org/2000/svg"
 width="666.000000pt" height="375.000000pt" viewBox="0 0 666.000000 375.000000"
 preserveAspectRatio="xMidYMid meet">

<g transform="translate(0.000000,375.000000) scale(0.100000,-0.100000)"
fill="#000000" stroke="none">
<path d="M2185 3715 c-279 -41 -469 -161 -452 -284 7 -52 28 -95 50 -99 13 -3
17 4 17 30 0 100 72 197 184 247 50 23 145 51 172 51 3 0 -15 -24 -40 -52 -53
-60 -125 -197 -182 -345 l-39 -103 -66 6 c-69 7 -109 -5 -109 -31 0 -10 10
-15 31 -15 16 0 50 -5 75 -11 51 -13 51 -8 -1 -130 -40 -94 -84 -160 -132
-196 -30 -23 -46 -28 -96 -28 -53 0 -61 3 -87 32 -40 44 -54 101 -39 156 17
65 51 95 119 107 43 7 46 29 6 49 -55 26 -139 -17 -176 -90 -29 -55 -27 -161
3 -214 73 -129 260 -141 362 -23 40 47 94 149 125 235 l22 62 30 -15 c57 -29
117 -94 124 -133 23 -119 108 -190 188 -157 30 12 76 58 90 88 5 10 7 10 12 0
15 -34 69 -82 99 -91 46 -12 101 2 136 35 l29 28 0 -26 c0 -34 -11 -45 -99
-93 -90 -49 -131 -93 -131 -140 0 -74 43 -115 119 -115 120 0 191 92 225 292
5 25 18 46 41 65 54 45 131 147 171 227 24 50 41 73 50 69 23 -9 25 -38 4 -98
-27 -77 -26 -140 3 -190 55 -97 169 -69 257 64 l35 52 8 -37 c10 -52 43 -102
79 -120 33 -17 97 -21 121 -8 30 18 88 75 115 116 l27 41 7 -47 c8 -59 30 -92
73 -113 42 -20 65 -6 65 41 0 76 82 290 125 326 32 27 39 -2 21 -97 -20 -107
-20 -164 -2 -206 45 -107 158 -89 243 39 l37 55 11 -46 c32 -123 155 -157 238
-64 20 23 39 40 40 38 2 -2 13 -20 26 -41 54 -91 157 -63 243 67 l42 65 11
-37 c30 -101 79 -144 165 -145 83 0 151 62 180 166 11 39 16 45 46 50 39 8 89
47 109 87 15 28 20 81 9 92 -11 11 -35 -6 -51 -37 -19 -39 -63 -86 -79 -86 -8
0 -16 20 -20 47 -8 52 -48 103 -82 103 -24 0 -48 -27 -57 -62 -8 -31 26 -112
50 -122 33 -12 -2 -133 -45 -156 -64 -34 -101 23 -108 170 l-5 96 54 39 c74
54 143 129 181 200 26 48 32 72 32 117 1 50 -3 62 -27 85 -37 37 -105 39 -160
4 -87 -54 -164 -217 -198 -421 -10 -62 -90 -228 -131 -272 -34 -36 -65 -37
-74 -2 -10 41 3 161 27 249 30 112 30 119 -5 123 -40 5 -85 -16 -101 -49 -8
-15 -29 -76 -46 -136 -44 -153 -66 -202 -96 -209 -30 -8 -33 -5 -43 42 -11 48
3 174 30 264 12 39 18 75 14 81 -11 18 -83 3 -110 -22 -13 -12 -37 -56 -55
-98 -62 -152 -138 -271 -173 -271 -27 0 -26 36 4 153 29 110 37 196 24 232 -4
8 -19 22 -33 30 -63 32 -165 -33 -232 -150 l-29 -50 0 44 c0 42 3 47 99 142
118 117 157 183 148 255 -6 54 -28 81 -73 90 -104 19 -207 -95 -267 -296 -14
-47 -29 -107 -32 -135 -8 -61 -102 -261 -138 -293 -30 -29 -57 -26 -75 8 -18
34 -10 239 12 300 9 24 14 50 12 57 -12 31 -114 1 -134 -40 -6 -12 -38 -79
-72 -149 -88 -185 -160 -250 -168 -154 -3 28 6 58 32 112 55 112 47 138 -52
164 -79 20 -92 30 -92 65 0 37 -33 85 -59 85 -55 0 -72 -92 -26 -140 l27 -28
-36 -69 c-20 -37 -57 -95 -83 -128 -60 -75 -62 -65 -32 106 32 179 31 183 -10
187 -23 2 -43 -3 -62 -17 l-28 -20 -36 36 c-33 33 -39 35 -85 31 -29 -3 -64
-15 -85 -29 -49 -33 -102 -115 -121 -188 -30 -118 -85 -211 -125 -211 -28 0
-34 37 -33 190 2 223 30 399 91 582 20 60 34 110 32 113 -13 12 -71 12 -154 0z
m37 -112 c-57 -112 -124 -345 -137 -475 l-7 -68 -27 19 c-14 10 -43 26 -63 34
-21 9 -38 19 -38 22 0 3 21 61 46 128 68 180 119 277 181 343 58 62 77 61 45
-3z m1761 -137 c-2 -20 -15 -60 -30 -88 -27 -50 -111 -143 -120 -134 -7 7 26
114 49 161 53 105 105 137 101 61z m1163 33 c14 -23 4 -94 -20 -144 -28 -56
-137 -168 -144 -147 -11 34 69 232 116 285 17 19 38 22 48 6z m-2500 -344 c41
-63 -28 -312 -91 -324 -32 -6 -45 27 -45 116 0 161 83 288 136 208z m-38 -512
c-24 -87 -68 -134 -107 -113 -30 16 -26 48 11 82 24 22 87 63 105 68 1 0 -3
-17 -9 -37z"/>
<path d="M3448 3422 c-23 -21 -31 -38 -31 -61 0 -42 13 -54 63 -54 77 0 130
65 96 117 -24 38 -84 36 -128 -2z"/>
</g>
</svg>
